# xmcd
#
# Track frame offsets:
#	150
#	16977
#	30895
#	47625
#	61130
#	88062
#	103785
#	120567
#	135112
#	148680
#	171310
#	199397
#	210892
#	225540
#	237180
#	256195
#	271557
#	286030
#	299242
#	315992
#	333415
#
# Disc length: 4672 seconds
#
# Revision: 0
# Processed by: cddbd v1.4PL0 Copyright (c) Steve Scherf et al.
# Submitted via: EasyCDDAExtractor 4.6.9.1
#
DISCID=1d123e15
DTITLE=Gram Parsons - Under Your Spell Again [CD2]
DYEAR=1900
DGENRE=Country
TTITLE0=Race With The Wind
TTITLE1=How Much I Lied
TTITLE2=The New Soft Shoe
TTITLE3=Still Feeling Blue
TTITLE4=A Song For You
TTITLE5=Big Mouth Blues
TTITLE6=Kiss The Children
TTITLE7=Fallen Angels
TTITLE8=Widowmaker
TTITLE9=Love Hurts
TTITLE10=Sin City
TTITLE11=Your Still On My Mind
TTITLE12=Undo The right/Somebody's Back In Town
TTITLE13=Lucille
TTITLE14=I Threw Away The Rose
TTITLE15=Train Song
TTITLE16=Six Days On The Road
TTITLE17=Close Up The Honkytonks
TTITLE18=We'll Sweep Out The Ashes In The Morning
TTITLE19=Return Of The Grievous Angel
TTITLE20=Hearts On Fire
EXTD=
EXTT0=
EXTT1=
EXTT2=
EXTT3=
EXTT4=
EXTT5=
EXTT6=
EXTT7=
EXTT8=
EXTT9=
EXTT10=
EXTT11=
EXTT12=
EXTT13=
EXTT14=
EXTT15=
EXTT16=
EXTT17=
EXTT18=
EXTT19=
EXTT20=
PLAYORDER=
